<svg width="128" height="128" viewBox="0 0 128 128" fill="none" xmlns="http://www.w3.org/2000/svg">
<path d="M17 74C10 45 24 22 50 14C77 6 108 20 116 48C124 78 102 107 71 112C46 117 23 99 17 74Z" fill="#FFF6EC" stroke="#4B2E57" stroke-width="8"/>
<path d="M38 73C35 58 43 46 58 42C74 39 91 46 95 61C99 78 87 93 70 96C56 99 42 89 38 73Z" fill="#F7B7B2"/>
<path d="M45 36C65 23 88 27 105 43" stroke="#F6C86A" stroke-width="8" stroke-linecap="round"/>
<path d="M23 78C45 99 83 105 110 79" stroke="#4B2E57" stroke-width="8" stroke-linecap="round"/>
</svg>
