<svg width="1024" height="1024" viewBox="0 0 1024 1024" fill="none" xmlns="http://www.w3.org/2000/svg">
  <rect width="1024" height="1024" rx="250" fill="#FFF6EC"/>
  <path d="M168 605C139 482 197 315 339 247C447 195 569 229 640 315C710 399 734 530 684 630C627 745 493 808 369 777C263 751 189 694 168 605Z" fill="#F7B7B2"/>
  <path d="M274 616C246 530 280 423 362 374C440 327 549 347 607 418C663 487 669 593 613 664C553 741 431 766 351 715C314 692 289 663 274 616Z" fill="#FFFDF8"/>
  <path d="M341 613C318 555 344 483 400 450C456 417 535 431 577 482C618 533 617 611 575 659C530 711 443 725 386 692C364 679 350 653 341 613Z" fill="#FFF6EC"/>
  <path d="M430 496C459 466 510 466 540 495C570 525 570 573 540 603L485 657L430 603C400 573 400 525 430 496Z" fill="#F47F7A"/>
  <circle cx="714" cy="292" r="43" fill="#F6C86A"/>
  <path d="M762 192C775 229 817 248 853 235C827 263 828 307 856 334C819 321 779 339 763 375C750 338 708 319 672 332C698 304 697 260 669 233C706 246 746 228 762 192Z" fill="#B9A7F2"/>
  <path d="M215 704C332 826 532 866 708 734" stroke="#4B2E57" stroke-width="38" stroke-linecap="round"/>
</svg>
